<?xml version="1.0" encoding="UTF-8"?>
<svg xmlns="http://www.w3.org/2000/svg" version="1.1" viewBox="0 0 270 270">
  <defs>
    <style>
      .cls-1 {
        fill: #1d3223;
      }
    </style>
  </defs>
  <!-- Generator: Adobe Illustrator 28.7.1, SVG Export Plug-In . SVG Version: 1.2.0 Build 142)  -->
  <g>
    <g id="Layer_1">
      <path class="cls-1" d="M132.8,134.7c-7.2,20.9-13.9,40.6-20.8,60.3-1.9,5.5-4.1,10.9-6.8,16-4.6,8.6-12,13.3-22,12.8-10.1-.5-17.5-5.6-21-15-7.7-20.8-15.1-41.7-22.3-62.7-10.4-30.3-20.5-60.6-30.6-91-1-2.7-1.6-5.6-2.5-8.9h41.3v5.8c.3,23.2-.5,46.5,1.3,69.6,1.7,22.3,5.8,44.3,9.2,66.5,1,6.4,4.3,11.8,9.8,15.6,3.9,2.7,7.3,2.1,9.8-1.8,1.5-2.3,2.8-4.9,3.7-7.5,15.5-46,30.9-92,46.2-138.1q3.5-10.5,14.8-10.5h18.5c-2.4,7.3-4.3,14.1-6.8,20.8-8.4,22.6-10.3,45.7-6.4,69.5,2.6,16,4.1,32.3,6.9,48.2,1,5.8,3.9,11.8,7.4,16.5,5.2,6.9,11.2,5.7,14.9-2.1.7-1.5,1.2-3.1,1.7-4.6,15-44.9,30-89.9,45.1-134.8.8-2.5,1.7-5,2.9-7.4,2-4,5.2-6.2,10-6.1,7,.2,13.9,0,21.2,0-.3,1.5-.4,2.7-.8,3.8-16.2,49.1-32.4,98.1-48.8,147.2-1.9,5.8-4.6,11.4-7.9,16.5-9.3,14.2-28,14.7-37.6.8-4.3-6.2-7.4-13.4-10-20.5-6.5-17.9-12.4-36-18.5-54.1-.4-1.2-1-2.4-2-4.8h.1Z"/>
    </g>
  </g>
</svg>